<svg xmlns="http://www.w3.org/2000/svg" xmlns:xlink="http://www.w3.org/1999/xlink" width="100" height="90" version="1.1" x="0px" y="0px" xml:space="preserve">
    <defs id="SvgjsDefs3100"></defs>
    <g id="SvgjsG3102" featurekey="symbol1" fill="#3275aa" transform="matrix(1,0,0,1,1,-7)">
        <g xmlns="http://www.w3.org/2000/svg">
            <path d="M52.59,38.243c-0.84,0-1.52,0.68-1.52,1.52c0,0.84,0.68,1.51,1.52,1.51c0.83,0,1.51-0.67,1.51-1.51   C54.1,38.923,53.42,38.243,52.59,38.243z"></path>
            <path d="M94.25,31.041l-11.912-2.005l1.212-11.394l-7.978,8.327l0.11,0.18c-6.247-6.484-15.012-10.525-24.723-10.525   c-8.08,0-18.95,3.39-26.5,15.34c-6.04,9.55-1.98,17.85-5.58,22.13c-4.79,5.68-13.13-2.98-13.13-2.98s4.69,36.12,45.21,34.19   c18.94-0.9,34.34-15.37,34.34-34.34c0-4.378-0.829-8.561-2.324-12.413L94.25,31.041z M32.44,64.903c-4.26,0-7.71-3.45-7.71-7.71   h15.42C40.15,61.453,36.7,64.903,32.44,64.903z M52.59,51.503c-6.49,0-11.74-5.26-11.74-11.74c0-6.49,5.25-11.74,11.74-11.74   c6.48,0,11.74,5.25,11.74,11.74C64.33,46.243,59.07,51.503,52.59,51.503z"></path>
        </g>
    </g>
</svg>
